<svg width="40" height="40" viewBox="0 0 40 40" fill="none" xmlns="http://www.w3.org/2000/svg">
<rect width="40" height="40" rx="6" fill="black"/>
<path d="M12.4224 14V19.9997C12.4224 19.9997 12.4224 22.9994 20.001 22.9994C27.5797 22.9994 27.5797 19.9997 27.5797 19.9997V14" stroke="white" stroke-width="1.5" stroke-linecap="round" stroke-linejoin="round"/>
<path d="M12.4224 20V25.9996C12.4224 25.9996 12.4224 29.0004 20.001 29.0004C27.5797 29.0004 27.5797 25.9996 27.5797 25.9996V20" stroke="white" stroke-width="1.5" stroke-linecap="round" stroke-linejoin="round"/>
<path d="M20.001 17.0377C24.1866 17.0377 27.5797 15.6861 27.5797 14.0188C27.5797 12.3516 24.1866 11 20.001 11C15.8154 11 12.4224 12.3516 12.4224 14.0188C12.4224 15.6861 15.8154 17.0377 20.001 17.0377Z" stroke="white" stroke-width="1.5" stroke-linecap="round" stroke-linejoin="round"/>
</svg>
