<svg width="17" height="16" viewBox="0 0 17 16" fill="none" xmlns="http://www.w3.org/2000/svg">
<path fill-rule="evenodd" clip-rule="evenodd" d="M10.9691 6.06699C10.7691 6.06432 10.5491 6.06365 10.2984 6.06365H6.7038C6.45447 6.06365 6.23647 6.06432 6.0378 6.06699V4.99232C6.06047 3.65099 7.13047 2.58765 8.47244 2.57032H8.50377C9.8491 2.57032 10.9525 3.65565 10.9691 4.99765V6.06699ZM10.5491 9.38367L8.2711 11.6643C8.17717 11.7577 8.04977 11.811 7.9171 11.811C7.78377 11.811 7.65584 11.757 7.56244 11.663L6.4558 10.549C6.26114 10.353 6.26247 10.0363 6.45847 9.84167C6.65447 9.647 6.97114 9.649 7.1658 9.84433L7.91784 10.6023L9.84117 8.67633C10.0364 8.481 10.3538 8.481 10.5484 8.67633C10.7438 8.871 10.7438 9.18833 10.5491 9.38367ZM13.5411 7.385C13.3098 6.90633 12.9212 6.51965 12.4504 6.29765C12.3032 6.22565 12.1451 6.17765 11.9691 6.14365V4.99165C11.9451 3.08165 10.3731 1.56632 8.46044 1.57032C6.57314 1.59432 5.0698 3.08965 5.0378 4.98365V6.14232C4.86047 6.17632 4.70247 6.22432 4.55514 6.29565C4.08114 6.51965 3.69247 6.90633 3.46047 7.38633C3.23047 7.86833 3.23047 8.42633 3.23047 9.537V10.957C3.23047 12.0737 3.23047 12.6343 3.4598 13.107C3.68514 13.5803 4.07247 13.9697 4.5558 14.205C5.0338 14.4303 5.5918 14.4303 6.7038 14.4303H10.2985C11.4105 14.4303 11.9685 14.4303 12.4504 14.203C12.9292 13.9697 13.3164 13.5803 13.5405 13.1097C13.7718 12.6343 13.7718 12.0737 13.7718 10.957V9.537C13.7718 8.42633 13.7718 7.86833 13.5411 7.385Z" fill="#A6A6A6"/>
</svg>
