<svg width="200" height="60" viewBox="0 0 200 60" fill="none" xmlns="http://www.w3.org/2000/svg">
<rect width="200" height="60" rx="6" fill="#FAFAFA"/>
<path d="M62.8375 38V22.7976H65.15V37.1435L63.9295 35.8802H72.5584V38H62.8375ZM79.0007 38.2569C77.9158 38.2569 76.9666 38.0143 76.1529 37.5289C75.3393 37.0436 74.7112 36.3513 74.2687 35.452C73.8262 34.5527 73.6049 33.5035 73.6049 32.3045C73.6049 31.0911 73.8262 30.042 74.2687 29.1569C74.7112 28.2719 75.3393 27.5867 76.1529 27.1014C76.9666 26.6018 77.9158 26.352 79.0007 26.352C80.0856 26.352 81.0348 26.6018 81.8485 27.1014C82.6621 27.5867 83.2902 28.2719 83.7327 29.1569C84.1752 30.042 84.3965 31.0911 84.3965 32.3045C84.3965 33.5035 84.1752 34.5527 83.7327 35.452C83.2902 36.3513 82.6621 37.0436 81.8485 37.5289C81.0348 38.0143 80.0856 38.2569 79.0007 38.2569ZM79.0007 36.2871C79.9714 36.2871 80.7208 35.9373 81.2489 35.2379C81.7771 34.5242 82.0412 33.5464 82.0412 32.3045C82.0412 31.0626 81.7771 30.0919 81.2489 29.3925C80.7208 28.6787 79.9714 28.3219 79.0007 28.3219C78.0443 28.3219 77.2949 28.6787 76.7525 29.3925C76.2243 30.0919 75.9602 31.0626 75.9602 32.3045C75.9602 33.5464 76.2243 34.5242 76.7525 35.2379C77.2949 35.9373 78.0443 36.2871 79.0007 36.2871ZM91.2723 41.4687C90.373 41.4687 89.5808 41.3331 88.8956 41.0619C88.2104 40.7907 87.6466 40.4053 87.2041 39.9056C86.7616 39.4203 86.4618 38.8493 86.3048 38.1927L88.6601 38.0428C88.8171 38.5139 89.0883 38.885 89.4737 39.1562C89.8734 39.4417 90.473 39.5845 91.2723 39.5845C92.2144 39.5845 92.9353 39.3846 93.4349 38.9849C93.9488 38.5853 94.2057 37.9786 94.2057 37.1649V35.5162C93.9345 36.1015 93.4992 36.5654 92.8996 36.908C92.3001 37.2506 91.6292 37.4219 90.8869 37.4219C89.9305 37.4219 89.0812 37.1864 88.3389 36.7153C87.5966 36.2442 87.0185 35.5947 86.6046 34.7668C86.1906 33.9389 85.9836 32.9825 85.9836 31.8976C85.9836 30.7985 86.1835 29.835 86.5832 29.0071C86.9971 28.1791 87.5681 27.5296 88.2961 27.0586C89.0384 26.5875 89.8734 26.352 90.8013 26.352C91.6149 26.352 92.3286 26.5376 92.9424 26.9087C93.5705 27.2798 94.0202 27.7795 94.2914 28.4075V26.6089H96.4754V37.1007C96.4754 38.0428 96.2613 38.8351 95.833 39.4774C95.4191 40.134 94.8195 40.6265 94.0344 40.9548C93.2636 41.2974 92.3429 41.4687 91.2723 41.4687ZM91.2509 35.4948C92.1359 35.4948 92.8425 35.1736 93.3707 34.5313C93.9131 33.8889 94.1915 33.0039 94.2057 31.8762C94.22 31.134 94.1058 30.4987 93.8632 29.9706C93.6205 29.4282 93.2708 29.0142 92.814 28.7287C92.3715 28.4289 91.8504 28.2791 91.2509 28.2791C90.3231 28.2791 89.6022 28.6074 89.0883 29.264C88.5887 29.9064 88.3389 30.7771 88.3389 31.8762C88.3389 32.9896 88.5959 33.8747 89.1097 34.5313C89.6379 35.1736 90.3516 35.4948 91.2509 35.4948ZM104.176 38.2569C103.091 38.2569 102.142 38.0143 101.329 37.5289C100.515 37.0436 99.8868 36.3513 99.4443 35.452C99.0018 34.5527 98.7805 33.5035 98.7805 32.3045C98.7805 31.0911 99.0018 30.042 99.4443 29.1569C99.8868 28.2719 100.515 27.5867 101.329 27.1014C102.142 26.6018 103.091 26.352 104.176 26.352C105.261 26.352 106.21 26.6018 107.024 27.1014C107.838 27.5867 108.466 28.2719 108.908 29.1569C109.351 30.042 109.572 31.0911 109.572 32.3045C109.572 33.5035 109.351 34.5527 108.908 35.452C108.466 36.3513 107.838 37.0436 107.024 37.5289C106.21 38.0143 105.261 38.2569 104.176 38.2569ZM104.176 36.2871C105.147 36.2871 105.896 35.9373 106.425 35.2379C106.953 34.5242 107.217 33.5464 107.217 32.3045C107.217 31.0626 106.953 30.0919 106.425 29.3925C105.896 28.6787 105.147 28.3219 104.176 28.3219C103.22 28.3219 102.47 28.6787 101.928 29.3925C101.4 30.0919 101.136 31.0626 101.136 32.3045C101.136 33.5464 101.4 34.5242 101.928 35.2379C102.47 35.9373 103.22 36.2871 104.176 36.2871ZM111.866 38V26.6089H114.135V38H111.866ZM111.823 24.9602V22.6906H114.178V24.9602H111.823ZM117.532 41.2118V26.6089H119.674L119.738 29.0499L119.481 28.9214C119.766 28.0792 120.237 27.444 120.894 27.0158C121.551 26.5733 122.307 26.352 123.164 26.352C124.277 26.352 125.191 26.6304 125.904 27.1871C126.632 27.7295 127.168 28.4504 127.51 29.3496C127.867 30.2489 128.046 31.2339 128.046 32.3045C128.046 33.3751 127.867 34.36 127.51 35.2593C127.168 36.1586 126.632 36.8866 125.904 37.4433C125.191 37.9857 124.277 38.2569 123.164 38.2569C122.593 38.2569 122.057 38.157 121.558 37.9572C121.058 37.7573 120.63 37.479 120.273 37.1221C119.93 36.751 119.688 36.3156 119.545 35.816L119.802 35.5591V41.2118H117.532ZM122.757 36.2871C123.67 36.2871 124.384 35.9373 124.898 35.2379C125.426 34.5384 125.69 33.5606 125.69 32.3045C125.69 31.0483 125.426 30.0705 124.898 29.3711C124.384 28.6716 123.67 28.3219 122.757 28.3219C122.157 28.3219 121.636 28.4718 121.194 28.7715C120.751 29.057 120.409 29.4995 120.166 30.0991C119.923 30.6986 119.802 31.4337 119.802 32.3045C119.802 33.1752 119.916 33.9104 120.145 34.5099C120.387 35.1094 120.73 35.5591 121.172 35.8588C121.629 36.1443 122.157 36.2871 122.757 36.2871ZM134.74 38.2569C133.669 38.2569 132.763 38.0928 132.02 37.7645C131.292 37.4362 130.728 36.9865 130.329 36.4155C129.929 35.8303 129.701 35.1594 129.644 34.4028L131.977 34.2958C132.092 34.9238 132.363 35.4235 132.791 35.7946C133.219 36.1657 133.869 36.3513 134.74 36.3513C135.453 36.3513 136.017 36.2371 136.431 36.0087C136.845 35.7803 137.052 35.4163 137.052 34.9167C137.052 34.6455 136.981 34.4171 136.838 34.2315C136.709 34.0317 136.452 33.8675 136.067 33.7391C135.682 33.5963 135.111 33.4607 134.354 33.3322C133.226 33.1181 132.341 32.8683 131.699 32.5828C131.057 32.2973 130.6 31.9333 130.329 31.4908C130.058 31.0483 129.922 30.513 129.922 29.8849C129.922 28.8429 130.307 27.9936 131.078 27.3369C131.863 26.6803 132.991 26.352 134.461 26.352C135.446 26.352 136.274 26.5233 136.945 26.8659C137.616 27.1942 138.137 27.6438 138.508 28.2148C138.893 28.7715 139.136 29.3996 139.236 30.0991L136.902 30.2275C136.831 29.8278 136.688 29.4853 136.474 29.1998C136.274 28.9 136.003 28.6716 135.66 28.5146C135.318 28.3433 134.911 28.2576 134.44 28.2576C133.712 28.2576 133.169 28.4004 132.812 28.6859C132.456 28.9714 132.277 29.3425 132.277 29.7993C132.277 30.1419 132.356 30.4202 132.513 30.6344C132.684 30.8485 132.955 31.0269 133.326 31.1696C133.698 31.2981 134.19 31.4123 134.804 31.5122C135.989 31.7121 136.916 31.9619 137.587 32.2616C138.258 32.5471 138.729 32.904 139 33.3322C139.272 33.7605 139.407 34.2815 139.407 34.8953C139.407 35.609 139.207 36.2157 138.808 36.7153C138.408 37.2149 137.859 37.6003 137.159 37.8715C136.46 38.1285 135.653 38.2569 134.74 38.2569ZM145.451 38.2569C144.309 38.2569 143.396 37.8787 142.711 37.1221C142.04 36.3513 141.704 35.2878 141.704 33.9318V26.6089H143.974V33.3536C143.974 34.3814 144.152 35.138 144.509 35.6233C144.866 36.1086 145.408 36.3513 146.136 36.3513C146.964 36.3513 147.607 36.0872 148.064 35.5591C148.535 35.0166 148.77 34.2601 148.77 33.2894V26.6089H151.04V38H148.92L148.877 35.0238L149.198 35.1522C148.999 36.1515 148.577 36.9223 147.935 37.4647C147.293 37.9929 146.465 38.2569 145.451 38.2569ZM154.25 38V26.6089H156.327L156.391 29.4353L156.134 29.3496C156.263 28.7216 156.484 28.1863 156.798 27.7438C157.127 27.3013 157.526 26.9587 157.997 26.716C158.468 26.4733 158.982 26.352 159.539 26.352C160.51 26.352 161.302 26.6304 161.916 27.1871C162.529 27.7295 162.915 28.4789 163.072 29.4353H162.708C162.836 28.7644 163.05 28.2077 163.35 27.7652C163.664 27.3084 164.064 26.9587 164.549 26.716C165.035 26.4733 165.584 26.352 166.198 26.352C166.997 26.352 167.675 26.5233 168.232 26.8659C168.803 27.1942 169.231 27.6795 169.517 28.3219C169.817 28.9642 169.966 29.7493 169.966 30.6772V38H167.697V31.2339C167.697 30.2489 167.518 29.5067 167.161 29.0071C166.805 28.5075 166.262 28.2576 165.534 28.2576C165.063 28.2576 164.649 28.379 164.292 28.6216C163.935 28.8643 163.657 29.214 163.457 29.6708C163.272 30.1276 163.179 30.6772 163.179 31.3195V38H161.016V31.3195C161.016 30.3489 160.852 29.5994 160.524 29.0713C160.21 28.5289 159.667 28.2576 158.897 28.2576C158.411 28.2576 157.99 28.379 157.633 28.6216C157.291 28.8643 157.019 29.2212 156.82 29.6922C156.62 30.149 156.52 30.6915 156.52 31.3195V38H154.25Z" fill="#A6A6A6"/>
<path d="M40.2834 30.7107C40.2951 30.7229 40.3078 30.729 40.3217 30.729C44.2649 30.7301 48.3093 30.7287 52.4548 30.7249C52.4613 30.7247 52.4676 30.7259 52.4736 30.7283C52.4795 30.7307 52.4849 30.7342 52.4895 30.7387C52.4941 30.7432 52.4977 30.7485 52.5002 30.7544C52.5026 30.7603 52.5039 30.7667 52.5039 30.7731C52.4873 34.0145 51.215 37.1112 48.9232 39.4046C46.6307 41.6988 43.5348 42.9728 40.2934 42.9902C40.2871 42.9902 40.2808 42.989 40.2749 42.9866C40.2691 42.9841 40.2638 42.9806 40.2593 42.9761C40.2548 42.9716 40.2513 42.9663 40.2488 42.9605C40.2464 42.9546 40.2452 42.9483 40.2452 42.942C40.2463 38.7964 40.2452 34.7521 40.2418 30.8088C40.2418 30.795 40.2358 30.7822 40.2236 30.7706C40.2119 30.7584 40.1992 30.7523 40.1853 30.7523C36.2421 30.7512 32.1977 30.7526 28.0521 30.7565C28.0393 30.7565 28.0271 30.7514 28.018 30.7423C28.009 30.7333 28.0039 30.721 28.0039 30.7082C28.0197 27.466 29.292 24.3693 31.5837 22.0759C33.8763 19.7825 36.9722 18.5085 40.2136 18.4902C40.2201 18.4901 40.2265 18.4913 40.2325 18.4937C40.2385 18.4962 40.2439 18.4998 40.2485 18.5044C40.2531 18.5089 40.2567 18.5144 40.2591 18.5204C40.2616 18.5264 40.2627 18.5328 40.2626 18.5393C40.261 22.6849 40.2618 26.7293 40.2651 30.6725C40.2651 30.6858 40.2712 30.6985 40.2834 30.7107Z" fill="#A6A6A6"/>
</svg>
