<svg width="200" height="60" viewBox="0 0 200 60" fill="none" xmlns="http://www.w3.org/2000/svg">
<rect width="200" height="60" rx="6" fill="#FAFAFA"/>
<path d="M52.5332 29.875C52.5332 33.1239 51.2426 36.2397 48.9453 38.5371C46.6479 40.8344 43.5321 42.125 40.2832 42.125C37.0343 42.125 33.9185 40.8344 31.6211 38.5371C29.3238 36.2397 28.0332 33.1239 28.0332 29.875C28.0332 28.2663 28.3501 26.6734 28.9657 25.1871C29.5813 23.7009 30.4836 22.3505 31.6211 21.2129C33.9185 18.9156 37.0343 17.625 40.2832 17.625C41.8919 17.625 43.4848 17.9419 44.9711 18.5575C46.4573 19.1731 47.8077 20.0754 48.9453 21.2129C50.0828 22.3505 50.9851 23.7009 51.6007 25.1871C52.2163 26.6734 52.5332 28.2663 52.5332 29.875ZM32.4513 23.7561C32.4513 23.7748 32.4712 23.8088 32.5111 23.858C34.4289 26.219 37.2415 27.6028 40.2832 27.6028C43.324 27.6028 46.1366 26.219 48.0534 23.858C48.0939 23.8088 48.1142 23.7748 48.1142 23.7561C48.1142 23.7386 48.0939 23.7053 48.0534 23.656C46.1366 21.295 43.323 19.9112 40.2823 19.9112C37.2415 19.9121 34.4289 21.295 32.5111 23.657C32.4712 23.7062 32.4513 23.7392 32.4513 23.7561ZM39.4463 29.8787C39.4463 29.875 39.4439 29.8728 39.4389 29.8722C36.1824 29.6042 33.4474 28.2814 31.2339 25.9039C31.2286 25.8984 31.2222 25.8942 31.215 25.8917C31.2078 25.8893 31.2002 25.8887 31.1928 25.8899C31.1853 25.8911 31.1784 25.8941 31.1725 25.8987C31.1666 25.9032 31.162 25.9092 31.1591 25.916C30.6092 27.1821 30.3343 28.502 30.3343 29.8759C30.3343 31.2498 30.6096 32.5698 31.16 33.8358C31.163 33.8425 31.1676 33.8483 31.1734 33.8527C31.1792 33.8572 31.186 33.8601 31.1933 33.8613C31.2006 33.8625 31.2081 33.8619 31.2152 33.8596C31.2222 33.8573 31.2286 33.8533 31.2339 33.848C33.4474 31.4705 36.1824 30.1474 39.4389 29.8787C39.4439 29.8781 39.4463 29.8781 39.4463 29.8787ZM41.078 29.8741C41.078 29.8778 41.0808 29.88 41.0864 29.8806C44.3622 30.1493 47.1137 31.4792 49.341 33.8704C49.3463 33.8759 49.3528 33.88 49.36 33.8824C49.3672 33.8848 49.3749 33.8854 49.3823 33.8841C49.3898 33.8828 49.3967 33.8797 49.4025 33.875C49.4084 33.8703 49.4129 33.8643 49.4158 33.8573C49.9687 32.5838 50.2448 31.2561 50.2442 29.8741C50.2436 28.4921 49.9665 27.1643 49.413 25.8908C49.41 25.8839 49.4054 25.878 49.3995 25.8734C49.3936 25.8688 49.3867 25.8658 49.3793 25.8646C49.3718 25.8634 49.3642 25.8641 49.357 25.8665C49.3499 25.8689 49.3434 25.8731 49.3382 25.8786C47.1128 28.2711 44.3622 29.6029 41.0864 29.8741C41.0808 29.8747 41.078 29.8747 41.078 29.8741ZM48.1142 35.993C48.1142 35.9743 48.0942 35.9403 48.0544 35.8911C46.1366 33.531 43.324 32.1481 40.2841 32.149C37.2443 32.149 34.4317 33.5329 32.5149 35.8939C32.475 35.9431 32.455 35.9771 32.455 35.9958C32.455 36.0126 32.475 36.0457 32.5149 36.0949C34.4326 38.4559 37.2452 39.8388 40.2851 39.8379C43.3258 39.8379 46.1375 38.454 48.0544 36.093C48.0942 36.0438 48.1142 36.0104 48.1142 35.993Z" fill="#A6A6A6"/>
<path d="M62.8102 38V22.7976H65.1226V37.1435L63.9022 35.8802H72.5311V38H62.8102ZM78.9734 38.2569C77.8885 38.2569 76.9393 38.0143 76.1256 37.5289C75.312 37.0436 74.6839 36.3513 74.2414 35.452C73.7989 34.5527 73.5776 33.5035 73.5776 32.3045C73.5776 31.0911 73.7989 30.042 74.2414 29.1569C74.6839 28.2719 75.312 27.5867 76.1256 27.1014C76.9393 26.6018 77.8885 26.352 78.9734 26.352C80.0582 26.352 81.0075 26.6018 81.8211 27.1014C82.6348 27.5867 83.2629 28.2719 83.7054 29.1569C84.1479 30.042 84.3691 31.0911 84.3691 32.3045C84.3691 33.5035 84.1479 34.5527 83.7054 35.452C83.2629 36.3513 82.6348 37.0436 81.8211 37.5289C81.0075 38.0143 80.0582 38.2569 78.9734 38.2569ZM78.9734 36.2871C79.944 36.2871 80.6934 35.9373 81.2216 35.2379C81.7498 34.5242 82.0138 33.5464 82.0138 32.3045C82.0138 31.0626 81.7498 30.0919 81.2216 29.3925C80.6934 28.6787 79.944 28.3219 78.9734 28.3219C78.017 28.3219 77.2676 28.6787 76.7251 29.3925C76.197 30.0919 75.9329 31.0626 75.9329 32.3045C75.9329 33.5464 76.197 34.5242 76.7251 35.2379C77.2676 35.9373 78.017 36.2871 78.9734 36.2871ZM91.245 41.4687C90.3457 41.4687 89.5535 41.3331 88.8683 41.0619C88.1831 40.7907 87.6193 40.4053 87.1768 39.9056C86.7342 39.4203 86.4345 38.8493 86.2775 38.1927L88.6328 38.0428C88.7898 38.5139 89.061 38.885 89.4464 39.1562C89.8461 39.4417 90.4456 39.5845 91.245 39.5845C92.1871 39.5845 92.908 39.3846 93.4076 38.9849C93.9215 38.5853 94.1784 37.9786 94.1784 37.1649V35.5162C93.9072 36.1015 93.4718 36.5654 92.8723 36.908C92.2728 37.2506 91.6019 37.4219 90.8596 37.4219C89.9032 37.4219 89.0539 37.1864 88.3116 36.7153C87.5693 36.2442 86.9912 35.5947 86.5772 34.7668C86.1633 33.9389 85.9563 32.9825 85.9563 31.8976C85.9563 30.7985 86.1561 29.835 86.5558 29.0071C86.9698 28.1791 87.5408 27.5296 88.2688 27.0586C89.011 26.5875 89.8461 26.352 90.7739 26.352C91.5876 26.352 92.3013 26.5376 92.9151 26.9087C93.5432 27.2798 93.9928 27.7795 94.264 28.4075V26.6089H96.448V37.1007C96.448 38.0428 96.2339 38.8351 95.8057 39.4774C95.3917 40.134 94.7922 40.6265 94.0071 40.9548C93.2363 41.2974 92.3156 41.4687 91.245 41.4687ZM91.2236 35.4948C92.1086 35.4948 92.8152 35.1736 93.3433 34.5313C93.8858 33.8889 94.1641 33.0039 94.1784 31.8762C94.1927 31.134 94.0785 30.4987 93.8358 29.9706C93.5931 29.4282 93.2434 29.0142 92.7866 28.7287C92.3441 28.4289 91.8231 28.2791 91.2236 28.2791C90.2957 28.2791 89.5749 28.6074 89.061 29.264C88.5614 29.9064 88.3116 30.7771 88.3116 31.8762C88.3116 32.9896 88.5685 33.8747 89.0824 34.5313C89.6106 35.1736 90.3243 35.4948 91.2236 35.4948ZM104.149 38.2569C103.064 38.2569 102.115 38.0143 101.301 37.5289C100.488 37.0436 99.8594 36.3513 99.4169 35.452C98.9744 34.5527 98.7532 33.5035 98.7532 32.3045C98.7532 31.0911 98.9744 30.042 99.4169 29.1569C99.8594 28.2719 100.488 27.5867 101.301 27.1014C102.115 26.6018 103.064 26.352 104.149 26.352C105.234 26.352 106.183 26.6018 106.997 27.1014C107.81 27.5867 108.438 28.2719 108.881 29.1569C109.323 30.042 109.545 31.0911 109.545 32.3045C109.545 33.5035 109.323 34.5527 108.881 35.452C108.438 36.3513 107.81 37.0436 106.997 37.5289C106.183 38.0143 105.234 38.2569 104.149 38.2569ZM104.149 36.2871C105.12 36.2871 105.869 35.9373 106.397 35.2379C106.925 34.5242 107.189 33.5464 107.189 32.3045C107.189 31.0626 106.925 30.0919 106.397 29.3925C105.869 28.6787 105.12 28.3219 104.149 28.3219C103.193 28.3219 102.443 28.6787 101.901 29.3925C101.373 30.0919 101.108 31.0626 101.108 32.3045C101.108 33.5464 101.373 34.5242 101.901 35.2379C102.443 35.9373 103.193 36.2871 104.149 36.2871ZM111.838 38V26.6089H114.108V38H111.838ZM111.796 24.9602V22.6906H114.151V24.9602H111.796ZM117.505 41.2118V26.6089H119.646L119.71 29.0499L119.453 28.9214C119.739 28.0792 120.21 27.444 120.867 27.0158C121.523 26.5733 122.28 26.352 123.136 26.352C124.25 26.352 125.163 26.6304 125.877 27.1871C126.605 27.7295 127.14 28.4504 127.483 29.3496C127.84 30.2489 128.018 31.2339 128.018 32.3045C128.018 33.3751 127.84 34.36 127.483 35.2593C127.14 36.1586 126.605 36.8866 125.877 37.4433C125.163 37.9857 124.25 38.2569 123.136 38.2569C122.565 38.2569 122.03 38.157 121.53 37.9572C121.031 37.7573 120.603 37.479 120.246 37.1221C119.903 36.751 119.66 36.3156 119.518 35.816L119.775 35.5591V41.2118H117.505ZM122.729 36.2871C123.643 36.2871 124.357 35.9373 124.871 35.2379C125.399 34.5384 125.663 33.5606 125.663 32.3045C125.663 31.0483 125.399 30.0705 124.871 29.3711C124.357 28.6716 123.643 28.3219 122.729 28.3219C122.13 28.3219 121.609 28.4718 121.166 28.7715C120.724 29.057 120.381 29.4995 120.139 30.0991C119.896 30.6986 119.775 31.4337 119.775 32.3045C119.775 33.1752 119.889 33.9104 120.117 34.5099C120.36 35.1094 120.703 35.5591 121.145 35.8588C121.602 36.1443 122.13 36.2871 122.729 36.2871ZM134.712 38.2569C133.642 38.2569 132.735 38.0928 131.993 37.7645C131.265 37.4362 130.701 36.9865 130.301 36.4155C129.902 35.8303 129.673 35.1594 129.616 34.4028L131.95 34.2958C132.064 34.9238 132.336 35.4235 132.764 35.7946C133.192 36.1657 133.841 36.3513 134.712 36.3513C135.426 36.3513 135.99 36.2371 136.404 36.0087C136.818 35.7803 137.025 35.4163 137.025 34.9167C137.025 34.6455 136.953 34.4171 136.811 34.2315C136.682 34.0317 136.425 33.8675 136.04 33.7391C135.654 33.5963 135.083 33.4607 134.327 33.3322C133.199 33.1181 132.314 32.8683 131.672 32.5828C131.029 32.2973 130.573 31.9333 130.301 31.4908C130.03 31.0483 129.895 30.513 129.895 29.8849C129.895 28.8429 130.28 27.9936 131.051 27.3369C131.836 26.6803 132.964 26.352 134.434 26.352C135.419 26.352 136.247 26.5233 136.918 26.8659C137.589 27.1942 138.11 27.6438 138.481 28.2148C138.866 28.7715 139.109 29.3996 139.209 30.0991L136.875 30.2275C136.803 29.8278 136.661 29.4853 136.447 29.1998C136.247 28.9 135.976 28.6716 135.633 28.5146C135.29 28.3433 134.884 28.2576 134.412 28.2576C133.684 28.2576 133.142 28.4004 132.785 28.6859C132.428 28.9714 132.25 29.3425 132.25 29.7993C132.25 30.1419 132.328 30.4202 132.485 30.6344C132.657 30.8485 132.928 31.0269 133.299 31.1696C133.67 31.2981 134.163 31.4123 134.776 31.5122C135.961 31.7121 136.889 31.9619 137.56 32.2616C138.231 32.5471 138.702 32.904 138.973 33.3322C139.244 33.7605 139.38 34.2815 139.38 34.8953C139.38 35.609 139.18 36.2157 138.78 36.7153C138.381 37.2149 137.831 37.6003 137.132 37.8715C136.432 38.1285 135.626 38.2569 134.712 38.2569ZM145.424 38.2569C144.282 38.2569 143.368 37.8787 142.683 37.1221C142.012 36.3513 141.677 35.2878 141.677 33.9318V26.6089H143.947V33.3536C143.947 34.3814 144.125 35.138 144.482 35.6233C144.839 36.1086 145.381 36.3513 146.109 36.3513C146.937 36.3513 147.579 36.0872 148.036 35.5591C148.507 35.0166 148.743 34.2601 148.743 33.2894V26.6089H151.012V38H148.893L148.85 35.0238L149.171 35.1522C148.971 36.1515 148.55 36.9223 147.908 37.4647C147.265 37.9929 146.437 38.2569 145.424 38.2569ZM154.223 38V26.6089H156.3L156.364 29.4353L156.107 29.3496C156.236 28.7216 156.457 28.1863 156.771 27.7438C157.099 27.3013 157.499 26.9587 157.97 26.716C158.441 26.4733 158.955 26.352 159.512 26.352C160.482 26.352 161.274 26.6304 161.888 27.1871C162.502 27.7295 162.887 28.4789 163.044 29.4353H162.68C162.809 28.7644 163.023 28.2077 163.323 27.7652C163.637 27.3084 164.037 26.9587 164.522 26.716C165.007 26.4733 165.557 26.352 166.171 26.352C166.97 26.352 167.648 26.5233 168.205 26.8659C168.776 27.1942 169.204 27.6795 169.489 28.3219C169.789 28.9642 169.939 29.7493 169.939 30.6772V38H167.669V31.2339C167.669 30.2489 167.491 29.5067 167.134 29.0071C166.777 28.5075 166.235 28.2576 165.507 28.2576C165.036 28.2576 164.622 28.379 164.265 28.6216C163.908 28.8643 163.63 29.214 163.43 29.6708C163.244 30.1276 163.152 30.6772 163.152 31.3195V38H160.989V31.3195C160.989 30.3489 160.825 29.5994 160.496 29.0713C160.182 28.5289 159.64 28.2576 158.869 28.2576C158.384 28.2576 157.963 28.379 157.606 28.6216C157.263 28.8643 156.992 29.2212 156.792 29.6922C156.592 30.149 156.492 30.6915 156.492 31.3195V38H154.223Z" fill="#A6A6A6"/>
</svg>
