<svg width="200" height="60" viewBox="0 0 200 60" fill="none" xmlns="http://www.w3.org/2000/svg">
<rect width="200" height="60" rx="6" fill="#FAFAFA"/>
<path d="M44.4051 29.8669C44.4063 30.7347 44.4066 32.0656 44.406 33.8597C44.406 33.8696 44.408 33.8794 44.4117 33.8885C44.4155 33.8976 44.4211 33.9059 44.4281 33.9129C44.4351 33.9199 44.4434 33.9255 44.4525 33.9293C44.4616 33.933 44.4714 33.935 44.4813 33.935C45.9945 33.9401 48.0772 33.9388 50.7292 33.9312C51.5567 33.9283 52.2564 34.4067 52.4919 35.2071C52.5402 35.3717 52.5643 35.6576 52.5643 36.0648C52.565 37.0292 52.5634 38.4465 52.5595 40.3168C52.5576 41.3431 51.774 42.1197 50.7521 42.1197C48.2964 42.1197 46.9106 42.1213 46.5948 42.1245C46.0819 42.1302 45.713 42.087 45.488 41.9949C45.038 41.8107 44.7092 41.4844 44.5013 41.0162C44.4016 40.792 44.3574 40.3733 44.3688 39.7603C44.3771 39.2952 44.378 37.39 44.3717 34.0446C44.3717 34.0276 44.365 34.0114 44.353 33.9994C44.341 33.9874 44.3248 33.9807 44.3078 33.9807L36.3354 33.955C36.325 33.9549 36.3148 33.9568 36.3052 33.9607C36.2956 33.9647 36.2869 33.9705 36.2795 33.9778C36.2721 33.9852 36.2663 33.9939 36.2623 34.0036C36.2583 34.0133 36.2563 34.0236 36.2563 34.0341C36.2525 37.5644 36.2531 39.4153 36.2582 39.5868C36.2791 40.3066 36.2328 40.7923 36.119 41.0439C35.8934 41.5458 35.5073 41.8818 34.9607 42.0521C34.6442 42.1502 34.1714 42.1188 33.7358 42.1207C32.6039 42.1258 31.3096 42.1239 29.853 42.115C28.9721 42.1102 28.2286 41.5003 28.0922 40.6293C28.0738 40.5124 28.0649 40.2139 28.0655 39.7336C28.0681 38.2839 28.0678 37.147 28.0646 36.323C28.0627 35.8428 28.0903 35.4454 28.2962 35.0575C28.5466 34.5874 28.9143 34.2561 29.3992 34.0636C29.6413 33.9677 30.0268 33.9235 30.5556 33.9312C31.0977 33.9394 32.9575 33.9401 36.1352 33.9331C36.1573 33.9331 36.1785 33.9244 36.1942 33.9088C36.2099 33.8933 36.2188 33.8722 36.2191 33.8502C36.2242 32.5389 36.2258 31.2166 36.2239 29.8831C36.2226 29.0153 36.2223 27.684 36.2229 25.8894C36.2227 25.8696 36.2146 25.8507 36.2005 25.8367C36.1864 25.8228 36.1674 25.815 36.1476 25.815C34.6344 25.8099 32.5518 25.8112 29.8997 25.8188C29.0722 25.8217 28.3725 25.3433 28.137 24.5429C28.0887 24.3783 28.0646 24.0924 28.0646 23.6852C28.064 22.7208 28.0655 21.3035 28.0694 19.4332C28.0713 18.4069 28.8549 17.6303 29.8768 17.6303C32.3325 17.6303 33.7183 17.6287 34.0341 17.6255C34.547 17.6198 34.9159 17.663 35.1409 17.7551C35.5909 17.9393 35.9198 18.2656 36.1276 18.7338C36.2274 18.958 36.2715 19.3767 36.2601 19.9897C36.2518 20.4548 36.2509 22.36 36.2572 25.7054C36.2572 25.7224 36.264 25.7386 36.2759 25.7506C36.2879 25.7626 36.3042 25.7693 36.3211 25.7693L44.2935 25.795C44.3039 25.7951 44.3141 25.7932 44.3237 25.7893C44.3333 25.7853 44.342 25.7795 44.3494 25.7722C44.3568 25.7648 44.3626 25.7561 44.3666 25.7464C44.3706 25.7368 44.3726 25.7264 44.3726 25.7159C44.3764 22.1856 44.3758 20.3347 44.3707 20.1632C44.3498 19.4434 44.3962 18.9577 44.5099 18.7061C44.7355 18.2043 45.1216 17.8682 45.6682 17.6979C45.9847 17.5998 46.4575 17.6312 46.8932 17.6293C48.025 17.6242 49.3193 17.6261 50.7759 17.635C51.6568 17.6398 52.4003 18.2497 52.5367 19.1207C52.5551 19.2375 52.564 19.5361 52.5634 20.0164C52.5608 21.4661 52.5611 22.603 52.5643 23.427C52.5662 23.9073 52.5386 24.3046 52.3327 24.6925C52.0823 25.1626 51.7146 25.4939 51.2297 25.6864C50.9876 25.7823 50.6021 25.8265 50.0734 25.8188C49.5312 25.8106 47.6714 25.8099 44.4937 25.8169C44.4716 25.8169 44.4504 25.8256 44.4347 25.8411C44.419 25.8567 44.4101 25.8778 44.4098 25.8998C44.4047 27.2111 44.4031 28.5334 44.4051 29.8669Z" fill="#A6A6A6"/>
<path d="M62.777 38V22.7976H65.0894V37.1435L63.869 35.8802H72.4979V38H62.777ZM78.9402 38.2569C77.8553 38.2569 76.906 38.0143 76.0924 37.5289C75.2788 37.0436 74.6507 36.3513 74.2082 35.452C73.7657 34.5527 73.5444 33.5035 73.5444 32.3045C73.5444 31.0911 73.7657 30.042 74.2082 29.1569C74.6507 28.2719 75.2788 27.5867 76.0924 27.1014C76.906 26.6018 77.8553 26.352 78.9402 26.352C80.025 26.352 80.9743 26.6018 81.7879 27.1014C82.6016 27.5867 83.2297 28.2719 83.6722 29.1569C84.1147 30.042 84.3359 31.0911 84.3359 32.3045C84.3359 33.5035 84.1147 34.5527 83.6722 35.452C83.2297 36.3513 82.6016 37.0436 81.7879 37.5289C80.9743 38.0143 80.025 38.2569 78.9402 38.2569ZM78.9402 36.2871C79.9108 36.2871 80.6602 35.9373 81.1884 35.2379C81.7166 34.5242 81.9806 33.5464 81.9806 32.3045C81.9806 31.0626 81.7166 30.0919 81.1884 29.3925C80.6602 28.6787 79.9108 28.3219 78.9402 28.3219C77.9838 28.3219 77.2344 28.6787 76.6919 29.3925C76.1638 30.0919 75.8997 31.0626 75.8997 32.3045C75.8997 33.5464 76.1638 34.5242 76.6919 35.2379C77.2344 35.9373 77.9838 36.2871 78.9402 36.2871ZM91.2118 41.4687C90.3125 41.4687 89.5203 41.3331 88.8351 41.0619C88.1499 40.7907 87.5861 40.4053 87.1435 39.9056C86.701 39.4203 86.4013 38.8493 86.2443 38.1927L88.5995 38.0428C88.7566 38.5139 89.0278 38.885 89.4132 39.1562C89.8129 39.4417 90.4124 39.5845 91.2118 39.5845C92.1539 39.5845 92.8748 39.3846 93.3744 38.9849C93.8883 38.5853 94.1452 37.9786 94.1452 37.1649V35.5162C93.874 36.1015 93.4386 36.5654 92.8391 36.908C92.2396 37.2506 91.5686 37.4219 90.8264 37.4219C89.87 37.4219 89.0206 37.1864 88.2784 36.7153C87.5361 36.2442 86.958 35.5947 86.544 34.7668C86.1301 33.9389 85.9231 32.9825 85.9231 31.8976C85.9231 30.7985 86.1229 29.835 86.5226 29.0071C86.9366 28.1791 87.5075 27.5296 88.2355 27.0586C88.9778 26.5875 89.8129 26.352 90.7407 26.352C91.5544 26.352 92.2681 26.5376 92.8819 26.9087C93.51 27.2798 93.9596 27.7795 94.2308 28.4075V26.6089H96.4148V37.1007C96.4148 38.0428 96.2007 38.8351 95.7725 39.4774C95.3585 40.134 94.759 40.6265 93.9739 40.9548C93.2031 41.2974 92.2824 41.4687 91.2118 41.4687ZM91.1904 35.4948C92.0754 35.4948 92.782 35.1736 93.3101 34.5313C93.8526 33.8889 94.1309 33.0039 94.1452 31.8762C94.1595 31.134 94.0453 30.4987 93.8026 29.9706C93.5599 29.4282 93.2102 29.0142 92.7534 28.7287C92.3109 28.4289 91.7899 28.2791 91.1904 28.2791C90.2625 28.2791 89.5417 28.6074 89.0278 29.264C88.5282 29.9064 88.2784 30.7771 88.2784 31.8762C88.2784 32.9896 88.5353 33.8747 89.0492 34.5313C89.5774 35.1736 90.2911 35.4948 91.1904 35.4948ZM104.116 38.2569C103.031 38.2569 102.082 38.0143 101.268 37.5289C100.454 37.0436 99.8262 36.3513 99.3837 35.452C98.9412 34.5527 98.72 33.5035 98.72 32.3045C98.72 31.0911 98.9412 30.042 99.3837 29.1569C99.8262 28.2719 100.454 27.5867 101.268 27.1014C102.082 26.6018 103.031 26.352 104.116 26.352C105.201 26.352 106.15 26.6018 106.963 27.1014C107.777 27.5867 108.405 28.2719 108.848 29.1569C109.29 30.042 109.511 31.0911 109.511 32.3045C109.511 33.5035 109.29 34.5527 108.848 35.452C108.405 36.3513 107.777 37.0436 106.963 37.5289C106.15 38.0143 105.201 38.2569 104.116 38.2569ZM104.116 36.2871C105.086 36.2871 105.836 35.9373 106.364 35.2379C106.892 34.5242 107.156 33.5464 107.156 32.3045C107.156 31.0626 106.892 30.0919 106.364 29.3925C105.836 28.6787 105.086 28.3219 104.116 28.3219C103.159 28.3219 102.41 28.6787 101.867 29.3925C101.339 30.0919 101.075 31.0626 101.075 32.3045C101.075 33.5464 101.339 34.5242 101.867 35.2379C102.41 35.9373 103.159 36.2871 104.116 36.2871ZM111.805 38V26.6089H114.075V38H111.805ZM111.762 24.9602V22.6906H114.118V24.9602H111.762ZM117.472 41.2118V26.6089H119.613L119.677 29.0499L119.42 28.9214C119.706 28.0792 120.177 27.444 120.833 27.0158C121.49 26.5733 122.247 26.352 123.103 26.352C124.217 26.352 125.13 26.6304 125.844 27.1871C126.572 27.7295 127.107 28.4504 127.45 29.3496C127.807 30.2489 127.985 31.2339 127.985 32.3045C127.985 33.3751 127.807 34.36 127.45 35.2593C127.107 36.1586 126.572 36.8866 125.844 37.4433C125.13 37.9857 124.217 38.2569 123.103 38.2569C122.532 38.2569 121.997 38.157 121.497 37.9572C120.998 37.7573 120.569 37.479 120.213 37.1221C119.87 36.751 119.627 36.3156 119.485 35.816L119.741 35.5591V41.2118H117.472ZM122.696 36.2871C123.61 36.2871 124.324 35.9373 124.837 35.2379C125.366 34.5384 125.63 33.5606 125.63 32.3045C125.63 31.0483 125.366 30.0705 124.837 29.3711C124.324 28.6716 123.61 28.3219 122.696 28.3219C122.097 28.3219 121.576 28.4718 121.133 28.7715C120.691 29.057 120.348 29.4995 120.105 30.0991C119.863 30.6986 119.741 31.4337 119.741 32.3045C119.741 33.1752 119.856 33.9104 120.084 34.5099C120.327 35.1094 120.669 35.5591 121.112 35.8588C121.569 36.1443 122.097 36.2871 122.696 36.2871ZM134.679 38.2569C133.608 38.2569 132.702 38.0928 131.96 37.7645C131.232 37.4362 130.668 36.9865 130.268 36.4155C129.869 35.8303 129.64 35.1594 129.583 34.4028L131.917 34.2958C132.031 34.9238 132.302 35.4235 132.731 35.7946C133.159 36.1657 133.808 36.3513 134.679 36.3513C135.393 36.3513 135.957 36.2371 136.371 36.0087C136.785 35.7803 136.991 35.4163 136.991 34.9167C136.991 34.6455 136.92 34.4171 136.777 34.2315C136.649 34.0317 136.392 33.8675 136.007 33.7391C135.621 33.5963 135.05 33.4607 134.294 33.3322C133.166 33.1181 132.281 32.8683 131.639 32.5828C130.996 32.2973 130.539 31.9333 130.268 31.4908C129.997 31.0483 129.861 30.513 129.861 29.8849C129.861 28.8429 130.247 27.9936 131.018 27.3369C131.803 26.6803 132.93 26.352 134.401 26.352C135.386 26.352 136.214 26.5233 136.884 26.8659C137.555 27.1942 138.076 27.6438 138.447 28.2148C138.833 28.7715 139.076 29.3996 139.175 30.0991L136.842 30.2275C136.77 29.8278 136.627 29.4853 136.413 29.1998C136.214 28.9 135.942 28.6716 135.6 28.5146C135.257 28.3433 134.85 28.2576 134.379 28.2576C133.651 28.2576 133.109 28.4004 132.752 28.6859C132.395 28.9714 132.217 29.3425 132.217 29.7993C132.217 30.1419 132.295 30.4202 132.452 30.6344C132.623 30.8485 132.895 31.0269 133.266 31.1696C133.637 31.2981 134.129 31.4123 134.743 31.5122C135.928 31.7121 136.856 31.9619 137.527 32.2616C138.198 32.5471 138.669 32.904 138.94 33.3322C139.211 33.7605 139.347 34.2815 139.347 34.8953C139.347 35.609 139.147 36.2157 138.747 36.7153C138.348 37.2149 137.798 37.6003 137.099 37.8715C136.399 38.1285 135.593 38.2569 134.679 38.2569ZM145.391 38.2569C144.249 38.2569 143.335 37.8787 142.65 37.1221C141.979 36.3513 141.644 35.2878 141.644 33.9318V26.6089H143.913V33.3536C143.913 34.3814 144.092 35.138 144.449 35.6233C144.805 36.1086 145.348 36.3513 146.076 36.3513C146.904 36.3513 147.546 36.0872 148.003 35.5591C148.474 35.0166 148.71 34.2601 148.71 33.2894V26.6089H150.979V38H148.859L148.817 35.0238L149.138 35.1522C148.938 36.1515 148.517 36.9223 147.875 37.4647C147.232 37.9929 146.404 38.2569 145.391 38.2569ZM154.19 38V26.6089H156.267L156.331 29.4353L156.074 29.3496C156.202 28.7216 156.424 28.1863 156.738 27.7438C157.066 27.3013 157.466 26.9587 157.937 26.716C158.408 26.4733 158.922 26.352 159.478 26.352C160.449 26.352 161.241 26.6304 161.855 27.1871C162.469 27.7295 162.854 28.4789 163.011 29.4353H162.647C162.776 28.7644 162.99 28.2077 163.29 27.7652C163.604 27.3084 164.003 26.9587 164.489 26.716C164.974 26.4733 165.524 26.352 166.137 26.352C166.937 26.352 167.615 26.5233 168.172 26.8659C168.743 27.1942 169.171 27.6795 169.456 28.3219C169.756 28.9642 169.906 29.7493 169.906 30.6772V38H167.636V31.2339C167.636 30.2489 167.458 29.5067 167.101 29.0071C166.744 28.5075 166.202 28.2576 165.474 28.2576C165.003 28.2576 164.589 28.379 164.232 28.6216C163.875 28.8643 163.597 29.214 163.397 29.6708C163.211 30.1276 163.118 30.6772 163.118 31.3195V38H160.956V31.3195C160.956 30.3489 160.792 29.5994 160.463 29.0713C160.149 28.5289 159.607 28.2576 158.836 28.2576C158.351 28.2576 157.93 28.379 157.573 28.6216C157.23 28.8643 156.959 29.2212 156.759 29.6922C156.559 30.149 156.459 30.6915 156.459 31.3195V38H154.19Z" fill="#A6A6A6"/>
</svg>
