<svg width="200" height="60" viewBox="0 0 200 60" fill="none" xmlns="http://www.w3.org/2000/svg">
<rect width="200" height="60" rx="6" fill="#FAFAFA"/>
<path d="M40.3662 18.2529C40.9247 18.2529 41.2336 18.2532 41.2929 18.2539C41.3088 18.2539 41.3239 18.2601 41.3352 18.2712C41.3465 18.2823 41.3529 18.2974 41.3532 18.3132C41.3699 19.9694 42.3346 21.3995 43.8675 22.0343C45.4013 22.6701 47.0946 22.3402 48.278 21.1816C48.2893 21.1706 48.3044 21.1644 48.3202 21.1644C48.336 21.1644 48.3511 21.1706 48.3624 21.1816C48.4044 21.2237 48.6228 21.4421 49.0176 21.8369C49.4124 22.2317 49.6308 22.4501 49.6728 22.4922C49.6839 22.5034 49.6901 22.5186 49.6901 22.5343C49.6901 22.5501 49.6839 22.5652 49.6728 22.5765C48.5144 23.76 48.1844 25.4533 48.8193 26.9872C49.455 28.5201 50.8851 29.485 52.5412 29.5026C52.5569 29.5028 52.5718 29.5091 52.5829 29.5202C52.594 29.5313 52.6003 29.5462 52.6005 29.5619C52.6011 29.6212 52.6014 29.9301 52.6014 30.4887C52.6014 31.0472 52.6011 31.3559 52.6005 31.4146C52.6005 31.4225 52.599 31.4303 52.5959 31.4376C52.5929 31.4449 52.5885 31.4516 52.5829 31.4572C52.5773 31.4628 52.5706 31.4672 52.5633 31.4702C52.556 31.4733 52.5482 31.4748 52.5403 31.4748C50.8851 31.4924 49.455 32.4563 48.8193 33.9902C48.1844 35.5231 48.5134 37.2164 49.6719 38.3999C49.6829 38.4112 49.6891 38.4263 49.6891 38.4421C49.6891 38.4579 49.6829 38.473 49.6719 38.4843C49.6305 38.5269 49.4124 38.7456 49.0176 39.1405C48.6228 39.5353 48.4041 39.7534 48.3614 39.7948C48.3502 39.8058 48.3351 39.812 48.3193 39.812C48.3035 39.812 48.2884 39.8058 48.2771 39.7948C47.0946 38.6363 45.4013 38.3073 43.8675 38.9421C42.3337 39.577 41.3699 41.0071 41.3522 42.6633C41.3522 42.6793 41.3459 42.6946 41.3346 42.7059C41.3233 42.7172 41.308 42.7235 41.292 42.7235C41.2333 42.7235 40.9247 42.7235 40.3662 42.7235C39.8076 42.7235 39.4987 42.7232 39.4394 42.7226C39.4236 42.7226 39.4084 42.7164 39.3971 42.7053C39.3858 42.6942 39.3794 42.6791 39.3791 42.6633C39.3625 41.0071 38.3977 39.577 36.8648 38.9421C35.331 38.3063 33.6378 38.6363 32.4543 39.7948C32.443 39.8058 32.4279 39.812 32.4121 39.812C32.3963 39.812 32.3812 39.8058 32.3699 39.7948C32.3279 39.7528 32.1095 39.5344 31.7147 39.1395C31.3199 38.7447 31.1015 38.5263 31.0595 38.4843C31.0484 38.473 31.0423 38.4579 31.0423 38.4421C31.0423 38.4263 31.0484 38.4112 31.0595 38.3999C32.2179 37.2164 32.5479 35.5231 31.913 33.9892C31.2773 32.4563 29.8473 31.4915 28.1911 31.4748C28.1753 31.4746 28.1602 31.4681 28.1491 31.4568C28.138 31.4456 28.1318 31.4304 28.1318 31.4146C28.1312 31.3553 28.1309 31.0463 28.1309 30.4878C28.1309 29.9292 28.1312 29.6206 28.1318 29.5619C28.1318 29.5459 28.1381 29.5306 28.1494 29.5193C28.1607 29.508 28.1761 29.5016 28.192 29.5016C29.8473 29.484 31.2773 28.5201 31.913 26.9863C32.5479 25.4533 32.2189 23.76 31.0604 22.5765C31.0494 22.5652 31.0432 22.5501 31.0432 22.5343C31.0432 22.5186 31.0494 22.5034 31.0604 22.4922C31.1018 22.4495 31.3199 22.2308 31.7147 21.836C32.1095 21.4412 32.3282 21.223 32.3709 21.1816C32.3821 21.1706 32.3973 21.1644 32.413 21.1644C32.4288 21.1644 32.4439 21.1706 32.4552 21.1816C33.6378 22.3402 35.331 22.6692 36.8648 22.0343C38.3986 21.3995 39.3625 19.9694 39.3801 18.3132C39.3803 18.2974 39.3868 18.2823 39.398 18.2712C39.4093 18.2601 39.4245 18.2539 39.4403 18.2539C39.499 18.2532 39.8076 18.2529 40.3662 18.2529Z" fill="#A6A6A6"/>
<path d="M62.7125 38V22.7976H65.025V37.1435L63.8045 35.8802H72.4334V38H62.7125ZM78.8757 38.2569C77.7908 38.2569 76.8416 38.0143 76.0279 37.5289C75.2143 37.0436 74.5862 36.3513 74.1437 35.452C73.7012 34.5527 73.4799 33.5035 73.4799 32.3045C73.4799 31.0911 73.7012 30.042 74.1437 29.1569C74.5862 28.2719 75.2143 27.5867 76.0279 27.1014C76.8416 26.6018 77.7908 26.352 78.8757 26.352C79.9606 26.352 80.9098 26.6018 81.7235 27.1014C82.5371 27.5867 83.1652 28.2719 83.6077 29.1569C84.0502 30.042 84.2715 31.0911 84.2715 32.3045C84.2715 33.5035 84.0502 34.5527 83.6077 35.452C83.1652 36.3513 82.5371 37.0436 81.7235 37.5289C80.9098 38.0143 79.9606 38.2569 78.8757 38.2569ZM78.8757 36.2871C79.8464 36.2871 80.5958 35.9373 81.1239 35.2379C81.6521 34.5242 81.9162 33.5464 81.9162 32.3045C81.9162 31.0626 81.6521 30.0919 81.1239 29.3925C80.5958 28.6787 79.8464 28.3219 78.8757 28.3219C77.9193 28.3219 77.1699 28.6787 76.6275 29.3925C76.0993 30.0919 75.8352 31.0626 75.8352 32.3045C75.8352 33.5464 76.0993 34.5242 76.6275 35.2379C77.1699 35.9373 77.9193 36.2871 78.8757 36.2871ZM91.1473 41.4687C90.248 41.4687 89.4558 41.3331 88.7706 41.0619C88.0854 40.7907 87.5216 40.4053 87.0791 39.9056C86.6366 39.4203 86.3368 38.8493 86.1798 38.1927L88.5351 38.0428C88.6921 38.5139 88.9633 38.885 89.3487 39.1562C89.7484 39.4417 90.348 39.5845 91.1473 39.5845C92.0894 39.5845 92.8103 39.3846 93.3099 38.9849C93.8238 38.5853 94.0807 37.9786 94.0807 37.1649V35.5162C93.8095 36.1015 93.3742 36.5654 92.7746 36.908C92.1751 37.2506 91.5042 37.4219 90.7619 37.4219C89.8055 37.4219 88.9562 37.1864 88.2139 36.7153C87.4716 36.2442 86.8935 35.5947 86.4796 34.7668C86.0656 33.9389 85.8586 32.9825 85.8586 31.8976C85.8586 30.7985 86.0585 29.835 86.4582 29.0071C86.8721 28.1791 87.4431 27.5296 88.1711 27.0586C88.9134 26.5875 89.7484 26.352 90.6763 26.352C91.4899 26.352 92.2036 26.5376 92.8174 26.9087C93.4455 27.2798 93.8952 27.7795 94.1664 28.4075V26.6089H96.3504V37.1007C96.3504 38.0428 96.1363 38.8351 95.708 39.4774C95.2941 40.134 94.6945 40.6265 93.9094 40.9548C93.1386 41.2974 92.2179 41.4687 91.1473 41.4687ZM91.1259 35.4948C92.0109 35.4948 92.7175 35.1736 93.2457 34.5313C93.7881 33.8889 94.0665 33.0039 94.0807 31.8762C94.095 31.134 93.9808 30.4987 93.7382 29.9706C93.4955 29.4282 93.1458 29.0142 92.689 28.7287C92.2465 28.4289 91.7254 28.2791 91.1259 28.2791C90.1981 28.2791 89.4772 28.6074 88.9633 29.264C88.4637 29.9064 88.2139 30.7771 88.2139 31.8762C88.2139 32.9896 88.4709 33.8747 88.9847 34.5313C89.5129 35.1736 90.2266 35.4948 91.1259 35.4948ZM104.051 38.2569C102.966 38.2569 102.017 38.0143 101.204 37.5289C100.39 37.0436 99.7618 36.3513 99.3193 35.452C98.8768 34.5527 98.6555 33.5035 98.6555 32.3045C98.6555 31.0911 98.8768 30.042 99.3193 29.1569C99.7618 28.2719 100.39 27.5867 101.204 27.1014C102.017 26.6018 102.966 26.352 104.051 26.352C105.136 26.352 106.085 26.6018 106.899 27.1014C107.713 27.5867 108.341 28.2719 108.783 29.1569C109.226 30.042 109.447 31.0911 109.447 32.3045C109.447 33.5035 109.226 34.5527 108.783 35.452C108.341 36.3513 107.713 37.0436 106.899 37.5289C106.085 38.0143 105.136 38.2569 104.051 38.2569ZM104.051 36.2871C105.022 36.2871 105.771 35.9373 106.3 35.2379C106.828 34.5242 107.092 33.5464 107.092 32.3045C107.092 31.0626 106.828 30.0919 106.3 29.3925C105.771 28.6787 105.022 28.3219 104.051 28.3219C103.095 28.3219 102.345 28.6787 101.803 29.3925C101.275 30.0919 101.011 31.0626 101.011 32.3045C101.011 33.5464 101.275 34.5242 101.803 35.2379C102.345 35.9373 103.095 36.2871 104.051 36.2871ZM111.741 38V26.6089H114.01V38H111.741ZM111.698 24.9602V22.6906H114.053V24.9602H111.698ZM117.407 41.2118V26.6089H119.549L119.613 29.0499L119.356 28.9214C119.641 28.0792 120.112 27.444 120.769 27.0158C121.426 26.5733 122.182 26.352 123.039 26.352C124.152 26.352 125.066 26.6304 125.779 27.1871C126.507 27.7295 127.043 28.4504 127.385 29.3496C127.742 30.2489 127.921 31.2339 127.921 32.3045C127.921 33.3751 127.742 34.36 127.385 35.2593C127.043 36.1586 126.507 36.8866 125.779 37.4433C125.066 37.9857 124.152 38.2569 123.039 38.2569C122.468 38.2569 121.932 38.157 121.433 37.9572C120.933 37.7573 120.505 37.479 120.148 37.1221C119.805 36.751 119.563 36.3156 119.42 35.816L119.677 35.5591V41.2118H117.407ZM122.632 36.2871C123.545 36.2871 124.259 35.9373 124.773 35.2379C125.301 34.5384 125.565 33.5606 125.565 32.3045C125.565 31.0483 125.301 30.0705 124.773 29.3711C124.259 28.6716 123.545 28.3219 122.632 28.3219C122.032 28.3219 121.511 28.4718 121.069 28.7715C120.626 29.057 120.284 29.4995 120.041 30.0991C119.798 30.6986 119.677 31.4337 119.677 32.3045C119.677 33.1752 119.791 33.9104 120.02 34.5099C120.262 35.1094 120.605 35.5591 121.047 35.8588C121.504 36.1443 122.032 36.2871 122.632 36.2871ZM134.615 38.2569C133.544 38.2569 132.638 38.0928 131.895 37.7645C131.167 37.4362 130.603 36.9865 130.204 36.4155C129.804 35.8303 129.576 35.1594 129.519 34.4028L131.852 34.2958C131.967 34.9238 132.238 35.4235 132.666 35.7946C133.094 36.1657 133.744 36.3513 134.615 36.3513C135.328 36.3513 135.892 36.2371 136.306 36.0087C136.72 35.7803 136.927 35.4163 136.927 34.9167C136.927 34.6455 136.856 34.4171 136.713 34.2315C136.584 34.0317 136.327 33.8675 135.942 33.7391C135.557 33.5963 134.986 33.4607 134.229 33.3322C133.101 33.1181 132.216 32.8683 131.574 32.5828C130.932 32.2973 130.475 31.9333 130.204 31.4908C129.933 31.0483 129.797 30.513 129.797 29.8849C129.797 28.8429 130.182 27.9936 130.953 27.3369C131.738 26.6803 132.866 26.352 134.336 26.352C135.321 26.352 136.149 26.5233 136.82 26.8659C137.491 27.1942 138.012 27.6438 138.383 28.2148C138.768 28.7715 139.011 29.3996 139.111 30.0991L136.777 30.2275C136.706 29.8278 136.563 29.4853 136.349 29.1998C136.149 28.9 135.878 28.6716 135.535 28.5146C135.193 28.3433 134.786 28.2576 134.315 28.2576C133.587 28.2576 133.044 28.4004 132.687 28.6859C132.331 28.9714 132.152 29.3425 132.152 29.7993C132.152 30.1419 132.231 30.4202 132.388 30.6344C132.559 30.8485 132.83 31.0269 133.201 31.1696C133.573 31.2981 134.065 31.4123 134.679 31.5122C135.864 31.7121 136.791 31.9619 137.462 32.2616C138.133 32.5471 138.604 32.904 138.875 33.3322C139.147 33.7605 139.282 34.2815 139.282 34.8953C139.282 35.609 139.082 36.2157 138.683 36.7153C138.283 37.2149 137.734 37.6003 137.034 37.8715C136.335 38.1285 135.528 38.2569 134.615 38.2569ZM145.326 38.2569C144.184 38.2569 143.271 37.8787 142.586 37.1221C141.915 36.3513 141.579 35.2878 141.579 33.9318V26.6089H143.849V33.3536C143.849 34.3814 144.027 35.138 144.384 35.6233C144.741 36.1086 145.283 36.3513 146.011 36.3513C146.839 36.3513 147.482 36.0872 147.939 35.5591C148.41 35.0166 148.645 34.2601 148.645 33.2894V26.6089H150.915V38H148.795L148.752 35.0238L149.073 35.1522C148.874 36.1515 148.452 36.9223 147.81 37.4647C147.168 37.9929 146.34 38.2569 145.326 38.2569ZM154.125 38V26.6089H156.202L156.266 29.4353L156.009 29.3496C156.138 28.7216 156.359 28.1863 156.673 27.7438C157.002 27.3013 157.401 26.9587 157.872 26.716C158.343 26.4733 158.857 26.352 159.414 26.352C160.385 26.352 161.177 26.6304 161.791 27.1871C162.404 27.7295 162.79 28.4789 162.947 29.4353H162.583C162.711 28.7644 162.925 28.2077 163.225 27.7652C163.539 27.3084 163.939 26.9587 164.424 26.716C164.91 26.4733 165.459 26.352 166.073 26.352C166.872 26.352 167.55 26.5233 168.107 26.8659C168.678 27.1942 169.106 27.6795 169.392 28.3219C169.692 28.9642 169.841 29.7493 169.841 30.6772V38H167.572V31.2339C167.572 30.2489 167.393 29.5067 167.036 29.0071C166.68 28.5075 166.137 28.2576 165.409 28.2576C164.938 28.2576 164.524 28.379 164.167 28.6216C163.81 28.8643 163.532 29.214 163.332 29.6708C163.147 30.1276 163.054 30.6772 163.054 31.3195V38H160.891V31.3195C160.891 30.3489 160.727 29.5994 160.399 29.0713C160.085 28.5289 159.542 28.2576 158.772 28.2576C158.286 28.2576 157.865 28.379 157.508 28.6216C157.166 28.8643 156.894 29.2212 156.695 29.6922C156.495 30.149 156.395 30.6915 156.395 31.3195V38H154.125Z" fill="#A6A6A6"/>
</svg>
