<svg width="200" height="60" viewBox="0 0 200 60" fill="none" xmlns="http://www.w3.org/2000/svg">
<rect width="200" height="60" rx="6" fill="#FAFAFA"/>
<path d="M35.1933 18.004C35.2112 17.9964 35.2254 17.9996 35.2358 18.0135C35.574 18.4842 35.9176 18.926 36.2667 19.3388C37.2499 20.4983 38.7376 21.1661 40.2652 21.1661C41.7929 21.1661 43.2815 20.4983 44.2638 19.3388C44.6135 18.926 44.9571 18.4842 45.2946 18.0135C45.3051 17.9996 45.3195 17.9964 45.3381 18.004C45.3566 18.0121 45.3644 18.0245 45.3615 18.0413C45.2677 18.6134 45.1985 19.1686 45.154 19.7071C45.0289 21.2217 45.6082 22.7468 46.6886 23.8272C47.769 24.9076 49.294 25.4868 50.8087 25.3618C51.3471 25.3172 51.9024 25.248 52.4744 25.1542C52.4912 25.1513 52.5037 25.1591 52.5118 25.1777C52.5193 25.1962 52.5158 25.2104 52.5013 25.2202C52.0312 25.5583 51.5897 25.9023 51.1769 26.252C50.0175 27.2342 49.3496 28.7228 49.3496 30.2505C49.3496 31.7782 50.0175 33.2659 51.1769 34.249C51.5897 34.5981 52.0312 34.9418 52.5013 35.2799C52.5158 35.2897 52.5193 35.3039 52.5118 35.3224C52.5037 35.341 52.4912 35.3488 52.4744 35.3459C51.9024 35.2521 51.3471 35.1829 50.8087 35.1383C49.294 35.0133 47.769 35.5934 46.6886 36.6738C45.6082 37.7542 45.0289 39.2784 45.154 40.793C45.1985 41.3321 45.2677 41.8873 45.3615 42.4588C45.3644 42.4762 45.3566 42.4886 45.3381 42.4961C45.3195 42.5037 45.3051 42.5005 45.2946 42.4866C44.9571 42.0159 44.6135 41.5744 44.2638 41.1621C43.2815 40.0027 41.7929 39.334 40.2652 39.334C38.7376 39.334 37.2499 40.0027 36.2667 41.1621C35.9176 41.5744 35.574 42.0159 35.2358 42.4866C35.2254 42.5005 35.2112 42.5037 35.1933 42.4961C35.1748 42.4886 35.1669 42.4762 35.1698 42.4588C35.263 41.8873 35.3322 41.3321 35.3774 40.793C35.5025 39.2784 34.9223 37.7542 33.8419 36.6738C32.7615 35.5934 31.2373 35.0133 29.7227 35.1383C29.1837 35.1829 28.6284 35.2521 28.0569 35.3459C28.0396 35.3488 28.0271 35.341 28.0196 35.3224C28.0121 35.3039 28.0152 35.2897 28.0291 35.2799C28.4999 34.9418 28.9413 34.5981 29.3536 34.249C30.513 33.2659 31.1818 31.7782 31.1818 30.2505C31.1818 28.7228 30.513 27.2342 29.3536 26.252C28.9413 25.9023 28.4999 25.5583 28.0291 25.2202C28.0152 25.2104 28.0121 25.1962 28.0196 25.1777C28.0271 25.1591 28.0396 25.1513 28.0569 25.1542C28.6284 25.248 29.1837 25.3172 29.7227 25.3618C31.2373 25.4868 32.7615 24.9076 33.8419 23.8272C34.9223 22.7468 35.5025 21.2217 35.3774 19.7071C35.3328 19.168 35.2636 18.6128 35.1698 18.0413C35.1669 18.0245 35.1748 18.0121 35.1933 18.004ZM46.732 30.2496C46.732 28.5345 46.0507 26.8897 44.8379 25.6769C43.6252 24.4642 41.9803 23.7829 40.2652 23.7829C38.5502 23.7829 36.9053 24.4642 35.6926 25.6769C34.4798 26.8897 33.7985 28.5345 33.7985 30.2496C33.7985 31.0988 33.9658 31.9397 34.2907 32.7243C34.6157 33.5089 35.0921 34.2218 35.6926 34.8223C36.2931 35.4228 37.0059 35.8991 37.7905 36.2241C38.5751 36.5491 39.416 36.7164 40.2652 36.7164C41.1145 36.7164 41.9554 36.5491 42.74 36.2241C43.5245 35.8991 44.2374 35.4228 44.8379 34.8223C45.4384 34.2218 45.9148 33.5089 46.2397 32.7243C46.5647 31.9397 46.732 31.0988 46.732 30.2496Z" fill="#A6A6A6"/>
<path d="M62.8258 38V22.7976H65.1383V37.1435L63.9178 35.8802H72.5467V38H62.8258ZM78.989 38.2569C77.9041 38.2569 76.9549 38.0143 76.1412 37.5289C75.3276 37.0436 74.6995 36.3513 74.257 35.452C73.8145 34.5527 73.5932 33.5035 73.5932 32.3045C73.5932 31.0911 73.8145 30.042 74.257 29.1569C74.6995 28.2719 75.3276 27.5867 76.1412 27.1014C76.9549 26.6018 77.9041 26.352 78.989 26.352C80.0739 26.352 81.0231 26.6018 81.8368 27.1014C82.6504 27.5867 83.2785 28.2719 83.721 29.1569C84.1635 30.042 84.3848 31.0911 84.3848 32.3045C84.3848 33.5035 84.1635 34.5527 83.721 35.452C83.2785 36.3513 82.6504 37.0436 81.8368 37.5289C81.0231 38.0143 80.0739 38.2569 78.989 38.2569ZM78.989 36.2871C79.9597 36.2871 80.7091 35.9373 81.2372 35.2379C81.7654 34.5242 82.0295 33.5464 82.0295 32.3045C82.0295 31.0626 81.7654 30.0919 81.2372 29.3925C80.7091 28.6787 79.9597 28.3219 78.989 28.3219C78.0326 28.3219 77.2832 28.6787 76.7408 29.3925C76.2126 30.0919 75.9485 31.0626 75.9485 32.3045C75.9485 33.5464 76.2126 34.5242 76.7408 35.2379C77.2832 35.9373 78.0326 36.2871 78.989 36.2871ZM91.2606 41.4687C90.3613 41.4687 89.5691 41.3331 88.8839 41.0619C88.1987 40.7907 87.6349 40.4053 87.1924 39.9056C86.7499 39.4203 86.4501 38.8493 86.2931 38.1927L88.6484 38.0428C88.8054 38.5139 89.0766 38.885 89.462 39.1562C89.8617 39.4417 90.4612 39.5845 91.2606 39.5845C92.2027 39.5845 92.9236 39.3846 93.4232 38.9849C93.9371 38.5853 94.194 37.9786 94.194 37.1649V35.5162C93.9228 36.1015 93.4874 36.5654 92.8879 36.908C92.2884 37.2506 91.6175 37.4219 90.8752 37.4219C89.9188 37.4219 89.0695 37.1864 88.3272 36.7153C87.5849 36.2442 87.0068 35.5947 86.5928 34.7668C86.1789 33.9389 85.9719 32.9825 85.9719 31.8976C85.9719 30.7985 86.1718 29.835 86.5714 29.0071C86.9854 28.1791 87.5564 27.5296 88.2844 27.0586C89.0267 26.5875 89.8617 26.352 90.7896 26.352C91.6032 26.352 92.3169 26.5376 92.9307 26.9087C93.5588 27.2798 94.0085 27.7795 94.2797 28.4075V26.6089H96.4637V37.1007C96.4637 38.0428 96.2496 38.8351 95.8213 39.4774C95.4074 40.134 94.8078 40.6265 94.0227 40.9548C93.2519 41.2974 92.3312 41.4687 91.2606 41.4687ZM91.2392 35.4948C92.1242 35.4948 92.8308 35.1736 93.359 34.5313C93.9014 33.8889 94.1798 33.0039 94.194 31.8762C94.2083 31.134 94.0941 30.4987 93.8514 29.9706C93.6088 29.4282 93.259 29.0142 92.8023 28.7287C92.3598 28.4289 91.8387 28.2791 91.2392 28.2791C90.3114 28.2791 89.5905 28.6074 89.0766 29.264C88.577 29.9064 88.3272 30.7771 88.3272 31.8762C88.3272 32.9896 88.5841 33.8747 89.098 34.5313C89.6262 35.1736 90.3399 35.4948 91.2392 35.4948ZM104.165 38.2569C103.08 38.2569 102.13 38.0143 101.317 37.5289C100.503 37.0436 99.8751 36.3513 99.4325 35.452C98.99 34.5527 98.7688 33.5035 98.7688 32.3045C98.7688 31.0911 98.99 30.042 99.4325 29.1569C99.8751 28.2719 100.503 27.5867 101.317 27.1014C102.13 26.6018 103.08 26.352 104.165 26.352C105.249 26.352 106.199 26.6018 107.012 27.1014C107.826 27.5867 108.454 28.2719 108.897 29.1569C109.339 30.042 109.56 31.0911 109.56 32.3045C109.56 33.5035 109.339 34.5527 108.897 35.452C108.454 36.3513 107.826 37.0436 107.012 37.5289C106.199 38.0143 105.249 38.2569 104.165 38.2569ZM104.165 36.2871C105.135 36.2871 105.885 35.9373 106.413 35.2379C106.941 34.5242 107.205 33.5464 107.205 32.3045C107.205 31.0626 106.941 30.0919 106.413 29.3925C105.885 28.6787 105.135 28.3219 104.165 28.3219C103.208 28.3219 102.459 28.6787 101.916 29.3925C101.388 30.0919 101.124 31.0626 101.124 32.3045C101.124 33.5464 101.388 34.5242 101.916 35.2379C102.459 35.9373 103.208 36.2871 104.165 36.2871ZM111.854 38V26.6089H114.124V38H111.854ZM111.811 24.9602V22.6906H114.167V24.9602H111.811ZM117.521 41.2118V26.6089H119.662L119.726 29.0499L119.469 28.9214C119.755 28.0792 120.226 27.444 120.882 27.0158C121.539 26.5733 122.295 26.352 123.152 26.352C124.265 26.352 125.179 26.6304 125.893 27.1871C126.621 27.7295 127.156 28.4504 127.499 29.3496C127.855 30.2489 128.034 31.2339 128.034 32.3045C128.034 33.3751 127.855 34.36 127.499 35.2593C127.156 36.1586 126.621 36.8866 125.893 37.4433C125.179 37.9857 124.265 38.2569 123.152 38.2569C122.581 38.2569 122.046 38.157 121.546 37.9572C121.046 37.7573 120.618 37.479 120.261 37.1221C119.919 36.751 119.676 36.3156 119.533 35.816L119.79 35.5591V41.2118H117.521ZM122.745 36.2871C123.659 36.2871 124.372 35.9373 124.886 35.2379C125.414 34.5384 125.679 33.5606 125.679 32.3045C125.679 31.0483 125.414 30.0705 124.886 29.3711C124.372 28.6716 123.659 28.3219 122.745 28.3219C122.146 28.3219 121.625 28.4718 121.182 28.7715C120.74 29.057 120.397 29.4995 120.154 30.0991C119.912 30.6986 119.79 31.4337 119.79 32.3045C119.79 33.1752 119.904 33.9104 120.133 34.5099C120.376 35.1094 120.718 35.5591 121.161 35.8588C121.617 36.1443 122.146 36.2871 122.745 36.2871ZM134.728 38.2569C133.657 38.2569 132.751 38.0928 132.009 37.7645C131.281 37.4362 130.717 36.9865 130.317 36.4155C129.917 35.8303 129.689 35.1594 129.632 34.4028L131.966 34.2958C132.08 34.9238 132.351 35.4235 132.779 35.7946C133.208 36.1657 133.857 36.3513 134.728 36.3513C135.442 36.3513 136.005 36.2371 136.419 36.0087C136.833 35.7803 137.04 35.4163 137.04 34.9167C137.04 34.6455 136.969 34.4171 136.826 34.2315C136.698 34.0317 136.441 33.8675 136.055 33.7391C135.67 33.5963 135.099 33.4607 134.342 33.3322C133.215 33.1181 132.33 32.8683 131.687 32.5828C131.045 32.2973 130.588 31.9333 130.317 31.4908C130.046 31.0483 129.91 30.513 129.91 29.8849C129.91 28.8429 130.296 27.9936 131.066 27.3369C131.852 26.6803 132.979 26.352 134.449 26.352C135.434 26.352 136.262 26.5233 136.933 26.8659C137.604 27.1942 138.125 27.6438 138.496 28.2148C138.882 28.7715 139.124 29.3996 139.224 30.0991L136.89 30.2275C136.819 29.8278 136.676 29.4853 136.462 29.1998C136.262 28.9 135.991 28.6716 135.649 28.5146C135.306 28.3433 134.899 28.2576 134.428 28.2576C133.7 28.2576 133.158 28.4004 132.801 28.6859C132.444 28.9714 132.265 29.3425 132.265 29.7993C132.265 30.1419 132.344 30.4202 132.501 30.6344C132.672 30.8485 132.944 31.0269 133.315 31.1696C133.686 31.2981 134.178 31.4123 134.792 31.5122C135.977 31.7121 136.905 31.9619 137.576 32.2616C138.247 32.5471 138.718 32.904 138.989 33.3322C139.26 33.7605 139.396 34.2815 139.396 34.8953C139.396 35.609 139.196 36.2157 138.796 36.7153C138.396 37.2149 137.847 37.6003 137.147 37.8715C136.448 38.1285 135.641 38.2569 134.728 38.2569ZM145.44 38.2569C144.298 38.2569 143.384 37.8787 142.699 37.1221C142.028 36.3513 141.693 35.2878 141.693 33.9318V26.6089H143.962V33.3536C143.962 34.3814 144.141 35.138 144.497 35.6233C144.854 36.1086 145.397 36.3513 146.125 36.3513C146.953 36.3513 147.595 36.0872 148.052 35.5591C148.523 35.0166 148.758 34.2601 148.758 33.2894V26.6089H151.028V38H148.908L148.865 35.0238L149.187 35.1522C148.987 36.1515 148.566 36.9223 147.923 37.4647C147.281 37.9929 146.453 38.2569 145.44 38.2569ZM154.238 38V26.6089H156.315L156.38 29.4353L156.123 29.3496C156.251 28.7216 156.472 28.1863 156.786 27.7438C157.115 27.3013 157.514 26.9587 157.986 26.716C158.457 26.4733 158.97 26.352 159.527 26.352C160.498 26.352 161.29 26.6304 161.904 27.1871C162.518 27.7295 162.903 28.4789 163.06 29.4353H162.696C162.825 28.7644 163.039 28.2077 163.338 27.7652C163.653 27.3084 164.052 26.9587 164.538 26.716C165.023 26.4733 165.572 26.352 166.186 26.352C166.986 26.352 167.664 26.5233 168.22 26.8659C168.791 27.1942 169.22 27.6795 169.505 28.3219C169.805 28.9642 169.955 29.7493 169.955 30.6772V38H167.685V31.2339C167.685 30.2489 167.507 29.5067 167.15 29.0071C166.793 28.5075 166.25 28.2576 165.522 28.2576C165.051 28.2576 164.637 28.379 164.281 28.6216C163.924 28.8643 163.645 29.214 163.446 29.6708C163.26 30.1276 163.167 30.6772 163.167 31.3195V38H161.005V31.3195C161.005 30.3489 160.84 29.5994 160.512 29.0713C160.198 28.5289 159.656 28.2576 158.885 28.2576C158.399 28.2576 157.978 28.379 157.622 28.6216C157.279 28.8643 157.008 29.2212 156.808 29.6922C156.608 30.149 156.508 30.6915 156.508 31.3195V38H154.238Z" fill="#A6A6A6"/>
</svg>
