<svg width="200" height="60" viewBox="0 0 200 60" fill="none" xmlns="http://www.w3.org/2000/svg">
<rect width="200" height="60" rx="6" fill="#FAFAFA"/>
<path d="M62.8336 38V22.7976H65.1461V37.1435L63.9256 35.8802H72.5545V38H62.8336ZM78.9968 38.2569C77.9119 38.2569 76.9627 38.0143 76.149 37.5289C75.3354 37.0436 74.7073 36.3513 74.2648 35.452C73.8223 34.5527 73.601 33.5035 73.601 32.3045C73.601 31.0911 73.8223 30.042 74.2648 29.1569C74.7073 28.2719 75.3354 27.5867 76.149 27.1014C76.9627 26.6018 77.9119 26.352 78.9968 26.352C80.0817 26.352 81.0309 26.6018 81.8446 27.1014C82.6582 27.5867 83.2863 28.2719 83.7288 29.1569C84.1713 30.042 84.3926 31.0911 84.3926 32.3045C84.3926 33.5035 84.1713 34.5527 83.7288 35.452C83.2863 36.3513 82.6582 37.0436 81.8446 37.5289C81.0309 38.0143 80.0817 38.2569 78.9968 38.2569ZM78.9968 36.2871C79.9675 36.2871 80.7169 35.9373 81.245 35.2379C81.7732 34.5242 82.0373 33.5464 82.0373 32.3045C82.0373 31.0626 81.7732 30.0919 81.245 29.3925C80.7169 28.6787 79.9675 28.3219 78.9968 28.3219C78.0404 28.3219 77.291 28.6787 76.7486 29.3925C76.2204 30.0919 75.9563 31.0626 75.9563 32.3045C75.9563 33.5464 76.2204 34.5242 76.7486 35.2379C77.291 35.9373 78.0404 36.2871 78.9968 36.2871ZM91.2684 41.4687C90.3691 41.4687 89.5769 41.3331 88.8917 41.0619C88.2065 40.7907 87.6427 40.4053 87.2002 39.9056C86.7577 39.4203 86.4579 38.8493 86.3009 38.1927L88.6562 38.0428C88.8132 38.5139 89.0844 38.885 89.4698 39.1562C89.8695 39.4417 90.4691 39.5845 91.2684 39.5845C92.2105 39.5845 92.9314 39.3846 93.431 38.9849C93.9449 38.5853 94.2018 37.9786 94.2018 37.1649V35.5162C93.9306 36.1015 93.4952 36.5654 92.8957 36.908C92.2962 37.2506 91.6253 37.4219 90.883 37.4219C89.9266 37.4219 89.0773 37.1864 88.335 36.7153C87.5927 36.2442 87.0146 35.5947 86.6007 34.7668C86.1867 33.9389 85.9797 32.9825 85.9797 31.8976C85.9797 30.7985 86.1796 29.835 86.5792 29.0071C86.9932 28.1791 87.5642 27.5296 88.2922 27.0586C89.0345 26.5875 89.8695 26.352 90.7974 26.352C91.611 26.352 92.3247 26.5376 92.9385 26.9087C93.5666 27.2798 94.0163 27.7795 94.2875 28.4075V26.6089H96.4715V37.1007C96.4715 38.0428 96.2574 38.8351 95.8291 39.4774C95.4152 40.134 94.8156 40.6265 94.0305 40.9548C93.2597 41.2974 92.339 41.4687 91.2684 41.4687ZM91.247 35.4948C92.132 35.4948 92.8386 35.1736 93.3668 34.5313C93.9092 33.8889 94.1876 33.0039 94.2018 31.8762C94.2161 31.134 94.1019 30.4987 93.8592 29.9706C93.6166 29.4282 93.2669 29.0142 92.8101 28.7287C92.3676 28.4289 91.8465 28.2791 91.247 28.2791C90.3192 28.2791 89.5983 28.6074 89.0844 29.264C88.5848 29.9064 88.335 30.7771 88.335 31.8762C88.335 32.9896 88.592 33.8747 89.1058 34.5313C89.634 35.1736 90.3477 35.4948 91.247 35.4948ZM104.172 38.2569C103.087 38.2569 102.138 38.0143 101.325 37.5289C100.511 37.0436 99.8829 36.3513 99.4404 35.452C98.9978 34.5527 98.7766 33.5035 98.7766 32.3045C98.7766 31.0911 98.9978 30.042 99.4404 29.1569C99.8829 28.2719 100.511 27.5867 101.325 27.1014C102.138 26.6018 103.087 26.352 104.172 26.352C105.257 26.352 106.206 26.6018 107.02 27.1014C107.834 27.5867 108.462 28.2719 108.904 29.1569C109.347 30.042 109.568 31.0911 109.568 32.3045C109.568 33.5035 109.347 34.5527 108.904 35.452C108.462 36.3513 107.834 37.0436 107.02 37.5289C106.206 38.0143 105.257 38.2569 104.172 38.2569ZM104.172 36.2871C105.143 36.2871 105.892 35.9373 106.421 35.2379C106.949 34.5242 107.213 33.5464 107.213 32.3045C107.213 31.0626 106.949 30.0919 106.421 29.3925C105.892 28.6787 105.143 28.3219 104.172 28.3219C103.216 28.3219 102.467 28.6787 101.924 29.3925C101.396 30.0919 101.132 31.0626 101.132 32.3045C101.132 33.5464 101.396 34.5242 101.924 35.2379C102.467 35.9373 103.216 36.2871 104.172 36.2871ZM111.862 38V26.6089H114.132V38H111.862ZM111.819 24.9602V22.6906H114.174V24.9602H111.819ZM117.528 41.2118V26.6089H119.67L119.734 29.0499L119.477 28.9214C119.762 28.0792 120.233 27.444 120.89 27.0158C121.547 26.5733 122.303 26.352 123.16 26.352C124.273 26.352 125.187 26.6304 125.9 27.1871C126.628 27.7295 127.164 28.4504 127.506 29.3496C127.863 30.2489 128.042 31.2339 128.042 32.3045C128.042 33.3751 127.863 34.36 127.506 35.2593C127.164 36.1586 126.628 36.8866 125.9 37.4433C125.187 37.9857 124.273 38.2569 123.16 38.2569C122.589 38.2569 122.053 38.157 121.554 37.9572C121.054 37.7573 120.626 37.479 120.269 37.1221C119.927 36.751 119.684 36.3156 119.541 35.816L119.798 35.5591V41.2118H117.528ZM122.753 36.2871C123.666 36.2871 124.38 35.9373 124.894 35.2379C125.422 34.5384 125.686 33.5606 125.686 32.3045C125.686 31.0483 125.422 30.0705 124.894 29.3711C124.38 28.6716 123.666 28.3219 122.753 28.3219C122.153 28.3219 121.632 28.4718 121.19 28.7715C120.747 29.057 120.405 29.4995 120.162 30.0991C119.919 30.6986 119.798 31.4337 119.798 32.3045C119.798 33.1752 119.912 33.9104 120.141 34.5099C120.383 35.1094 120.726 35.5591 121.168 35.8588C121.625 36.1443 122.153 36.2871 122.753 36.2871ZM134.736 38.2569C133.665 38.2569 132.759 38.0928 132.016 37.7645C131.288 37.4362 130.725 36.9865 130.325 36.4155C129.925 35.8303 129.697 35.1594 129.64 34.4028L131.974 34.2958C132.088 34.9238 132.359 35.4235 132.787 35.7946C133.215 36.1657 133.865 36.3513 134.736 36.3513C135.449 36.3513 136.013 36.2371 136.427 36.0087C136.841 35.7803 137.048 35.4163 137.048 34.9167C137.048 34.6455 136.977 34.4171 136.834 34.2315C136.706 34.0317 136.449 33.8675 136.063 33.7391C135.678 33.5963 135.107 33.4607 134.35 33.3322C133.223 33.1181 132.338 32.8683 131.695 32.5828C131.053 32.2973 130.596 31.9333 130.325 31.4908C130.054 31.0483 129.918 30.513 129.918 29.8849C129.918 28.8429 130.303 27.9936 131.074 27.3369C131.859 26.6803 132.987 26.352 134.457 26.352C135.442 26.352 136.27 26.5233 136.941 26.8659C137.612 27.1942 138.133 27.6438 138.504 28.2148C138.89 28.7715 139.132 29.3996 139.232 30.0991L136.898 30.2275C136.827 29.8278 136.684 29.4853 136.47 29.1998C136.27 28.9 135.999 28.6716 135.656 28.5146C135.314 28.3433 134.907 28.2576 134.436 28.2576C133.708 28.2576 133.165 28.4004 132.809 28.6859C132.452 28.9714 132.273 29.3425 132.273 29.7993C132.273 30.1419 132.352 30.4202 132.509 30.6344C132.68 30.8485 132.951 31.0269 133.322 31.1696C133.694 31.2981 134.186 31.4123 134.8 31.5122C135.985 31.7121 136.913 31.9619 137.583 32.2616C138.254 32.5471 138.725 32.904 138.997 33.3322C139.268 33.7605 139.403 34.2815 139.403 34.8953C139.403 35.609 139.204 36.2157 138.804 36.7153C138.404 37.2149 137.855 37.6003 137.155 37.8715C136.456 38.1285 135.649 38.2569 134.736 38.2569ZM145.447 38.2569C144.305 38.2569 143.392 37.8787 142.707 37.1221C142.036 36.3513 141.7 35.2878 141.7 33.9318V26.6089H143.97V33.3536C143.97 34.3814 144.148 35.138 144.505 35.6233C144.862 36.1086 145.405 36.3513 146.133 36.3513C146.96 36.3513 147.603 36.0872 148.06 35.5591C148.531 35.0166 148.766 34.2601 148.766 33.2894V26.6089H151.036V38H148.916L148.873 35.0238L149.194 35.1522C148.995 36.1515 148.574 36.9223 147.931 37.4647C147.289 37.9929 146.461 38.2569 145.447 38.2569ZM154.246 38V26.6089H156.323L156.387 29.4353L156.131 29.3496C156.259 28.7216 156.48 28.1863 156.794 27.7438C157.123 27.3013 157.522 26.9587 157.993 26.716C158.464 26.4733 158.978 26.352 159.535 26.352C160.506 26.352 161.298 26.6304 161.912 27.1871C162.526 27.7295 162.911 28.4789 163.068 29.4353H162.704C162.832 28.7644 163.047 28.2077 163.346 27.7652C163.66 27.3084 164.06 26.9587 164.545 26.716C165.031 26.4733 165.58 26.352 166.194 26.352C166.993 26.352 167.671 26.5233 168.228 26.8659C168.799 27.1942 169.227 27.6795 169.513 28.3219C169.813 28.9642 169.963 29.7493 169.963 30.6772V38H167.693V31.2339C167.693 30.2489 167.514 29.5067 167.158 29.0071C166.801 28.5075 166.258 28.2576 165.53 28.2576C165.059 28.2576 164.645 28.379 164.288 28.6216C163.932 28.8643 163.653 29.214 163.453 29.6708C163.268 30.1276 163.175 30.6772 163.175 31.3195V38H161.012V31.3195C161.012 30.3489 160.848 29.5994 160.52 29.0713C160.206 28.5289 159.663 28.2576 158.893 28.2576C158.407 28.2576 157.986 28.379 157.629 28.6216C157.287 28.8643 157.016 29.2212 156.816 29.6922C156.616 30.149 156.516 30.6915 156.516 31.3195V38H154.246Z" fill="#A6A6A6"/>
<path d="M35.8702 29.0929C37.9639 31.1874 40.9286 32.5872 43.9352 32.2073C43.9403 32.2064 43.9455 32.2072 43.9501 32.2095C43.9547 32.2118 43.9584 32.2156 43.9607 32.2202C43.9631 32.2248 43.9638 32.23 43.9629 32.2351C43.962 32.2402 43.9595 32.2448 43.9557 32.2484L39.2884 36.9114C39.272 36.9277 39.2522 36.9401 39.2304 36.9475C39.2086 36.9549 39.1854 36.9572 39.1626 36.9542C36.3066 36.5931 33.7098 35.3243 31.6743 33.2879C29.638 31.2524 28.37 28.6548 28.0089 25.7988C28.0061 25.7761 28.0086 25.753 28.0162 25.7314C28.0238 25.7097 28.0362 25.6901 28.0525 25.6739L32.7165 21.0066C32.7201 21.0032 32.7246 21.0009 32.7295 21.0002C32.7344 20.9995 32.7394 21.0004 32.7438 21.0026C32.7482 21.0049 32.7518 21.0084 32.7541 21.0128C32.7564 21.0172 32.7573 21.0222 32.7567 21.0271C32.3768 24.0337 33.7766 26.9984 35.8702 29.0929Z" fill="#A6A6A6"/>
<path d="M48.8454 27.3368C50.8792 29.3714 52.1464 31.9682 52.5066 34.8225C52.5095 34.8451 52.5071 34.8682 52.4997 34.8898C52.4923 34.9115 52.48 34.9311 52.4638 34.9474L47.8016 39.6104C47.7981 39.6138 47.7936 39.6159 47.7888 39.6166C47.784 39.6174 47.7791 39.6166 47.7747 39.6145C47.7704 39.6123 47.7667 39.6089 47.7644 39.6047C47.762 39.6005 47.7609 39.5956 47.7614 39.5908C48.1413 36.585 46.7432 33.6221 44.6513 31.5284C42.5584 29.4347 39.5963 28.0349 36.5906 28.414C36.5858 28.4144 36.5809 28.4134 36.5767 28.411C36.5724 28.4086 36.569 28.405 36.5669 28.4007C36.5648 28.3963 36.564 28.3914 36.5647 28.3866C36.5654 28.3818 36.5676 28.3773 36.5709 28.3738L41.2365 23.7141C41.2528 23.6979 41.2725 23.6857 41.2941 23.6782C41.3158 23.6708 41.3388 23.6685 41.3614 23.6714C44.2158 24.0324 46.8117 25.3013 48.8454 27.3368Z" fill="#A6A6A6"/>
</svg>
